# xmcd
#
# Track frame offsets: 
#        150
#        14760
#        47547
#        70190
#        83872
#        119457
#        147735
#        171750
#        208622
#        244425
#        262012
#        281132
#
# Disc length: 3935 seconds
#
# Revision: 1
# Processed by: cddbd v1.5.2PL0 Copyright (c) Steve Scherf et al.
# Submitted via: ExactAudioCopy v0.99pb5
#
DISCID=bf0f5d0c
DTITLE=Muddy Waters - Hoochie Coochie Man
DYEAR=1900
DGENRE=Blues
TTITLE0=Boogie Thang
TTITLE1=Goin' Down Slow
TTITLE2=Can't Get No Grinding
TTITLE3=Hoochie Coochie Man
TTITLE4=Howlin' Wolf
TTITLE5=Everything's Gonna Be Alright
TTITLE6=Dust My Broom
TTITLE7=Take A Walk With Me
TTITLE8=Stormy Monday
TTITLE9=Walkin Blues
TTITLE10=Rollin' And Tumblin'
TTITLE11=Got My Mojo Working
EXTD=ID3G: 0
EXTT0=
EXTT1=
EXTT2=
EXTT3=
EXTT4=
EXTT5=
EXTT6=
EXTT7=
EXTT8=
EXTT9=
EXTT10=
EXTT11=
PLAYORDER=
